<svg preserveAspectRatio="none" width="100%" height="100%" overflow="visible" style="display: block;" viewBox="0 0 36 36" fill="none" xmlns="http://www.w3.org/2000/svg">
<g id="LinkedIN">
<path id="Combined-Shape" d="M18 0C27.9411 0 36 8.05887 36 18C36 27.9411 27.9411 36 18 36C8.05887 36 0 27.9411 0 18C0 8.05887 8.05887 0 18 0ZM8.6416 27.165H12.7207V14.9082H8.6416V27.165ZM22.7344 14.6201C20.5689 14.6203 19.599 15.8101 19.0576 16.6445V14.9092H14.9785C15.0322 16.0618 14.9785 27.165 14.9785 27.165H19.0576V20.3203C19.0576 19.954 19.0845 19.5884 19.1924 19.3262C19.4872 18.5944 20.1583 17.837 21.2852 17.8369C22.7618 17.8369 23.3525 18.9605 23.3525 20.6074V27.165H27.4316V20.1377C27.4316 16.3731 25.4187 14.6201 22.7344 14.6201ZM10.708 9C9.31254 9 8.40039 9.91547 8.40039 11.1172C8.40047 12.2939 9.28586 13.2354 10.6553 13.2354H10.6807C12.1029 13.2354 12.9892 12.2939 12.9893 11.1172C12.9628 9.91553 12.1033 9.0001 10.708 9Z" fill="var(--fill-0, white)"/>
</g>
</svg>
